<svg xmlns="http://www.w3.org/2000/svg" width="144" height="51" viewBox="0 0 144 51">
    <path d="M88.0866 10.707H81.381V33.804L75.4111 33.804C71.4256 33.804 68.7149 31.0879 68.7149 27.1V15.8648C68.7149 13.0164 66.4071 10.7072 63.5603 10.7072H62.0093L62.0093 27.1C62.0093 34.506 68.0095 40.5098 75.4111 40.5098L88.0866 40.5096V10.707Z"
          fill="#212121"/>
    <path d="M117.146 40.5103L123.852 40.5103L123.852 17.4132L129.822 17.4133C133.807 17.4133 136.518 20.1294 136.518 24.1172L136.518 35.3525C136.518 38.2009 138.826 40.5101 141.673 40.5101L143.224 40.5101L143.224 24.1172C143.224 16.7112 137.223 10.7075 129.822 10.7075L117.146 10.7077L117.146 40.5103Z"
          fill="#212121"/>
    <path d="M111.964 7.375C111.964 6.49441 111.79 5.62244 111.453 4.80888C111.116 3.99532 110.622 3.25611 110 2.63343C109.377 2.01076 108.638 1.51683 107.824 1.17985C107.011 0.84286 106.139 0.669415 105.258 0.669415L105.258 7.375L111.964 7.375Z"
          fill="#212121"/>
    <path d="M100.016 43.8274C100.016 44.708 99.8428 45.5799 99.5058 46.3935C99.1688 47.2071 98.6749 47.9463 98.0522 48.569C97.4296 49.1916 96.6904 49.6856 95.8768 50.0225C95.0632 50.3595 94.1913 50.533 93.3107 50.533L93.259 10.6885L99.9646 10.6885L100.016 43.8274Z"
          fill="#212121"/>
    <path d="M105.216 10.707H111.922V40.5096H105.216V10.707Z" fill="#212121"/>
</svg>